/* XPM */
static char * blackarch_xpm[] = {
"20 20 48 1",
" 	c #000000",
".	c #FFFFFF",
"+	c #FCFCFC",
"@	c #F9F9F9",
"#	c #EFEFEF",
"$	c #ADADAD",
"%	c #F4F4F4",
"&	c #E0E0E0",
"*	c #B1B1B1",
"=	c #E6E6E6",
"-	c #B7B7B7",
";	c #EBEBEB",
">	c #C2C2C2",
",	c #F3F3F3",
"'	c #EEEEEE",
")	c #BDBDBD",
"!	c #D7D7D7",
"~	c #A1A1A1",
"{	c #CFCFCF",
"]	c #A7A7A7",
"^	c #696969",
"/	c #9D9D9D",
"(	c #DBDBDB",
"_	c #C8C8C8",
":	c #545454",
"<	c #7C7C7C",
"[	c #C1C1C1",
"}	c #D3D3D3",
"|	c #717171",
"1	c #8D8D8D",
"2	c #151515",
"3	c #E2E2E2",
"4	c #0B0B0B",
"5	c #414141",
"6	c #4B4B4B",
"7	c #2A2A2A",
"8	c #373737",
"9	c #848484",
"0	c #202020",
"a	c #606060",
"b	c #333333",
"c	c #3E3E3E",
"d	c #262626",
"e	c #959595",
"f	c #777777",
"g	c #5B5B5B",
"h	c #525252",
"i	c #1B1B1B",
"                    ",
"         gg         ",
"         -)         ",
"        i,%7        ",
"        e..]        ",
"        &..;4       ",
"       8(...e       ",
"       ({(..=       ",
"      <..+...e      ",
"      (......=      ",
"     9......../     ",
"     3..+**@..;2    ",
"    e...-  *...]    ",
"   i;...^  :..@#7   ",
"   ]....b   +.%)|   ",
"  8,..+=c  2=+.._d  ",
"  -.#-a      a*#.)4 ",
" :;]7          7];g ",
" ^8              8^ ",
"                    "};
