/* XPM */
static char * clock_xpm[] = {
"21 21 44 1",
" 	c #000000",
".	c #FFFFFF",
"+	c #7B7B7B",
"@	c #D5D5D5",
"#	c #969696",
"$	c #E8E8E8",
"%	c #171717",
"&	c #242424",
"*	c #F5F5F5",
"=	c #E3E3E3",
"-	c #8C8C8C",
";	c #9D9D9D",
">	c #F3F3F3",
",	c #FCFCFC",
"'	c #B2B2B2",
")	c #838383",
"!	c #ECECEC",
"~	c #A9A9A9",
"{	c #676767",
"]	c #BBBBBB",
"^	c #DBDBDB",
"/	c #9B9B9B",
"(	c #CBCBCB",
"_	c #4F4F4F",
":	c #565656",
"<	c #5B5B5B",
"[	c #3A3A3A",
"}	c #AFAFAF",
"|	c #101010",
"1	c #444444",
"2	c #A4A4A4",
"3	c #1F1F1F",
"4	c #757575",
"5	c #323232",
"6	c #CDCDCD",
"7	c #636363",
"8	c #505050",
"9	c #363636",
"0	c #2D2D2D",
"a	c #C2C2C2",
"b	c #8E8E8E",
"c	c #6D6D6D",
"d	c #484848",
"e	c #1A1A1A",
"    _c444444444c<|   ",
"   %#aa]]]]]]]]a'e   ",
"   %/24:::::::<#]e   ",
"   %b27       1#}e   ",
"   |{'4 |   | 7~#%   ",
"    5a#b#4{+;22]<|   ",
"    |}2a====!6~]&    ",
"     c]]=...!a'-     ",
"     32]]^*=]]}[     ",
"      :;]'']]~c      ",
"       +6])'(#       ",
"      82'#)/}~{      ",
"     e;'c14:<}~[     ",
"     c]) <b4 4]-     ",
"    |};_ <-4 0#]&    ",
"    5a) 9)~#d +]:    ",
"   |{'4|b=.!~07~-|   ",
"   |-2<<6**,^)1#~e   ",
"   %/2c#(@@@@~<#'e   ",
"   %#a]]]]]]]]']'e   ",
"    84++++++++++7|   "};
