/* XPM */
static char * clock_xpm[] = {
"20 20 49 1",
" 	c #F5F5F5",
".	c #E2E2E2",
"+	c #BDBDBD",
"@	c #ADADAD",
"#	c #B1B1B1",
"$	c #BCBCBC",
"%	c #E0E0E0",
"&	c #E3E3E3",
"*	c #838383",
"=	c #141414",
"-	c #797979",
";	c #818181",
">	c #E1E1E1",
",	c #DEDEDE",
"'	c #515151",
")	c #606060",
"!	c #505050",
"~	c #DCDCDC",
"{	c #525252",
"]	c #A1A1A1",
"^	c #4F4F4F",
"/	c #545454",
"(	c #808080",
"_	c #DDDDDD",
":	c #B5B5B5",
"<	c #AEAEAE",
"[	c #787878",
"}	c #9D9D9D",
"|	c #5C5C5C",
"1	c #7A7A7A",
"2	c #616161",
"3	c #3B3B3B",
"4	c #BBBBBB",
"5	c #DFDFDF",
"6	c #DBDBDB",
"7	c #767676",
"8	c #4E4E4E",
"9	c #A0A0A0",
"0	c #9C9C9C",
"a	c #4C4C4C",
"b	c #D8D8D8",
"c	c #5F5F5F",
"d	c #4D4D4D",
"e	c #D0D0D0",
"f	c #7D7D7D",
"g	c #747474",
"h	c #B2B2B2",
"i	c #B4B4B4",
"j	c #DADADA",
"                    ",
"                    ",
"       .+@#$%       ",
"     &*==--==;>     ",
"    ,'===))===!~    ",
"   &{]===^^===]/>   ",
"   *=====--=====(   ",
"  >======--======_  ",
"  $======--======:  ",
"  <[)====-}--|=)-#  ",
"  #12====3--1)=21#  ",
"  4==============:  ",
"  5==============6  ",
"   (============7   ",
"   >89========0a,   ",
"    b/===c)===de    ",
"     5f==--==g5     ",
"       ~:hhij       ",
"                    ",
"                    "};
