/* XPM */
static char * cpu_xpm[] = {
"21 20 6 1",
" 	c #FDFDFD",
".	c #FEFEFE",
"+	c #000000",
"@	c #212121",
"#	c #010101",
"$	c #F3F3F3",
"                     ",
"...+++++++++++++++...",
"..++@@@@@@@@@@@@@++..",
"..++.............++..",
"..++.............++..",
"..++.............++..",
"..++.............++..",
"..++.............++..",
"..++.............++..",
"..++.............++..",
"..++.............++..",
"..++.............++..",
"..+++++++++++++++++..",
"..+++++++#+++++++++..",
".+++..+.......+..++#.",
".+++++++.....+++++++.",
" +++++++.....+++++++.",
".....................",
"$+++++++++++++++++++ ",
"....................."};
