/* XPM */
static char * hdd_xpm[] = {
"22 20 39 1",
" 	c #000000",
".	c #FFFFFF",
"+	c #ADADAD",
"@	c #4F4F4F",
"#	c #F6F6F6",
"$	c #BEBEBE",
"%	c #656565",
"&	c #FAFAFA",
"*	c #B8B8B8",
"=	c #BBBBBB",
"-	c #BFBFBF",
";	c #686868",
">	c #FBFBFB",
",	c #E4E4E4",
"'	c #DCDCDC",
")	c #707070",
"!	c #A7A7A7",
"~	c #5F5F5F",
"{	c #D5D5D5",
"]	c #C7C7C7",
"^	c #EAEAEA",
"/	c #494949",
"(	c #969696",
"_	c #8B8B8B",
":	c #9D9D9D",
"<	c #CFCFCF",
"[	c #1E1E1E",
"}	c #F0F0F0",
"|	c #3D3D3D",
"1	c #565656",
"2	c #3F3F3F",
"3	c #7C7C7C",
"4	c #848484",
"5	c #1B1B1B",
"6	c #333333",
"7	c #131313",
"8	c #282828",
"9	c #909090",
"0	c #757575",
"......................",
"......................",
"....&]**********]&....",
"...._            _....",
"...]              ]...",
"..}|              |}..",
"..9                9..",
".<                  <.",
"#_333333333333333333_#",
"......................",
"<|                  |<",
"2                    2",
"             |+0 0+|  ",
"             *.^ ^.*  ",
"             _#- -#_  ",
"                      ",
"4                    4",
"#]******************]#",
"......................",
"......................"};
