/* XPM */
static char * weather_xpm[] = {
"20 20 103 2",
"  	c #000000",
". 	c #616161",
"+ 	c #9B9B9B",
"@ 	c #525252",
"# 	c #575757",
"$ 	c #9D9D9D",
"% 	c #CECECE",
"& 	c #F1F1F1",
"* 	c #7B7B7B",
"= 	c #353535",
"- 	c #999999",
"; 	c #BCBCBC",
"> 	c #C7C7C7",
", 	c #CDCDCD",
"' 	c #EEEEEE",
") 	c #FFFFFF",
"! 	c #DDDDDD",
"~ 	c #474747",
"{ 	c #393939",
"] 	c #B3B3B3",
"^ 	c #B9B9B9",
"/ 	c #7C7B7C",
"( 	c #383838",
"_ 	c #E2E2E2",
": 	c #BFBFBF",
"< 	c #909090",
"[ 	c #808080",
"} 	c #BDBDBD",
"| 	c #4C4C4C",
"1 	c #060606",
"2 	c #D8D8D8",
"3 	c #FAFAFA",
"4 	c #A7A7A7",
"5 	c #7C7C7C",
"6 	c #8B8B8B",
"7 	c #CCCCCC",
"8 	c #878787",
"9 	c #A2A2A2",
"0 	c #CBCBCB",
"a 	c #C1C1C1",
"b 	c #010101",
"c 	c #717171",
"d 	c #AFAFAF",
"e 	c #626262",
"f 	c #A0A0A0",
"g 	c #DBDBDB",
"h 	c #F5F5F5",
"i 	c #C6C6C6",
"j 	c #696969",
"k 	c #C4C4C4",
"l 	c #D1D1D1",
"m 	c #737373",
"n 	c #888888",
"o 	c #565656",
"p 	c #D2D2D2",
"q 	c #C9C9C9",
"r 	c #FBFBFB",
"s 	c #DCDCDC",
"t 	c #9C9C9C",
"u 	c #8A8A8A",
"v 	c #F6F6F6",
"w 	c #323232",
"x 	c #7D7D7D",
"y 	c #D7D7D7",
"z 	c #A8A8A8",
"A 	c #0D0D0D",
"B 	c #C2C2C2",
"C 	c #D0D0D0",
"D 	c #4B4B4B",
"E 	c #6B6B6B",
"F 	c #AAAAAA",
"G 	c #F9F9F9",
"H 	c #F2F2F2",
"I 	c #F7F7F7",
"J 	c #5B5B5B",
"K 	c #F0F0F0",
"L 	c #5D5D5D",
"M 	c #DADADA",
"N 	c #4F4F4F",
"O 	c #464646",
"P 	c #868686",
"Q 	c #3E3E3E",
"R 	c #EBEBEB",
"S 	c #B1B1B1",
"T 	c #747474",
"U 	c #898989",
"V 	c #1F1F1F",
"W 	c #3B3B3B",
"X 	c #EDEDED",
"Y 	c #838383",
"Z 	c #E3E3E3",
"` 	c #E7E7E7",
" .	c #343434",
"..	c #CFCFCF",
"+.	c #989898",
"@.	c #DEDEDE",
"#.	c #EAEAEA",
"$.	c #FCFCFC",
"%.	c #EFEFEF",
"&.	c #E6E6E6",
"*.	c #2D2D2D",
"=.	c #959595",
"-.	c #303030",
"                                        ",
"                                . + @   ",
"                        # $ % & & *     ",
"            = - ; > , ' ) ) ) ! ~       ",
"        { ] ^ /   ( _ ) ) ) : < ]       ",
"      [ } |     1 2 ) ) 3 4 5 6 & 7     ",
"    8 9         0 ) ) ) ) ) a b c ) d   ",
"  e ^         } ) ) ) ) 3 f       g h   ",
"  i {       j k l ) ) & 5         0 ) m ",
"~ l           n 3 ) _ o           p ) * ",
"5 q         - r ) s t u         { v r w ",
"x y       z ) ) ) ) } A         B ) C   ",
"D r E   F G ) ) H n           F ) I J   ",
"  C K e L , ) M N         O % ) 3 P     ",
"  Q R 3 ! r S         T a I ) ' U V     ",
"    W R X Y > Z s ` I ) ) v ] (  .      ",
"    9 ..( +.@.#.$.%.&.> +.*.            ",
"  * =.                                  ",
"-.@                                     ",
"                                        "};
