/* XPM */
static char * netdown_xpm[] = {
"20 20 37 1",
" 	c #000000",
".	c #FCFEFC",
"+	c #FFFFFF",
"@	c #BFC0BF",
"#	c #F9FBF9",
"$	c #292A29",
"%	c #A1A2A1",
"&	c #A3A5A3",
"*	c #2C2C2C",
"=	c #484848",
"-	c #393939",
";	c #A0A1A0",
">	c #A9AAA9",
",	c #B9BBB9",
"'	c #6E6F6E",
")	c #F7F9F7",
"!	c #303030",
"~	c #575857",
"{	c #D9DBD9",
"]	c #F1F3F1",
"^	c #7D7E7D",
"/	c #343534",
"(	c #3F403F",
"_	c #C3C5C3",
":	c #CBCDCB",
"<	c #191A19",
"[	c #E2E4E2",
"}	c #909190",
"|	c #212121",
"1	c #515151",
"2	c #D2D4D2",
"3	c #696A69",
"4	c #989998",
"5	c #767776",
"6	c #E8EAE8",
"7	c #4A4B4A",
"8	c #121212",
"      }[))))[}      ",
"     '#......#'     ",
"     >........>     ",
"     ,........,     ",
"     ,........,     ",
"     ,........,     ",
"     ,........,     ",
"     ,........,     ",
"     ,........,     ",
"     ,........,     ",
",]]]])........)]]]]@",
"~6................6~",
" ~]..............]~ ",
"  ~6............6~  ",
"   ~]..........]~   ",
"    ~]........]~    ",
"     ~6......6~     ",
"      ~6....]~      ",
"       ~6..6~       ",
"        1{[~        "};
