/* XPM */
static char * netup_xpm[] = {
"20 20 41 1",
" 	c #000000",
".	c #FFFFFF",
"+	c #858585",
"@	c #626262",
"#	c #ABABAB",
"$	c #535353",
"%	c #151515",
"&	c #3F3F3F",
"*	c #2A2A2A",
"=	c #505050",
"-	c #DADADA",
";	c #F1F1F1",
">	c #727272",
",	c #C2C2C2",
"'	c #CACACA",
")	c #D0D0D0",
"!	c #121212",
"~	c #B7B7B7",
"{	c #1A1A1A",
"]	c #F8F8F8",
"^	c #A6A6A6",
"/	c #0B0B0B",
"(	c #797979",
"_	c #373737",
":	c #676767",
"<	c #B4B4B4",
"[	c #D5D5D5",
"}	c #E6E6E6",
"|	c #9F9F9F",
"1	c #DDDDDD",
"2	c #C4C4C4",
"3	c #BCBCBC",
"4	c #949494",
"5	c #818181",
"6	c #959595",
"7	c #767676",
"8	c #242424",
"9	c #474747",
"0	c #3A3A3A",
"a	c #5A5A5A",
"b	c #303030",
"        $}1a        ",
"       a;..;@       ",
"      @;....;@      ",
"     @;......;@     ",
"    @;........;@    ",
"   @;..........;@   ",
"  @;............;@  ",
" @;..............;@ ",
"a;................;a",
"'..................'",
"     3........3     ",
"     3........3     ",
"     3........3     ",
"     3........3     ",
"     3........3     ",
"     3........3     ",
"     ~........3     ",
"     <........~     ",
"     (........5     ",
"      |;]]]];|      "};
