/* XPM */
static char * pacman_xpm[] = {
"20 15 167 2",
"  	c #000000",
". 	c #2F2807",
"+ 	c #AA8E1B",
"@ 	c #DEB923",
"# 	c #F8D029",
"$ 	c #FDD324",
"% 	c #F0C71F",
"& 	c #D1AC15",
"* 	c #836B08",
"= 	c #746110",
"- 	c #ECC526",
"; 	c #FED531",
"> 	c #FED738",
", 	c #FED73A",
"' 	c #FED637",
") 	c #FED42E",
"! 	c #FED221",
"~ 	c #FECF13",
"{ 	c #CFA80B",
"] 	c #352B01",
"^ 	c #6F5C0C",
"/ 	c #F8CE27",
"( 	c #FED634",
"_ 	c #FED942",
": 	c #FEDA4B",
"< 	c #FEDB4E",
"[ 	c #FEDA49",
"} 	c #C8AB33",
"| 	c #E5C029",
"1 	c #FED11F",
"2 	c #FECE0D",
"3 	c #DBB006",
"4 	c #171201",
"5 	c #1E1902",
"6 	c #EAC11B",
"7 	c #FED42C",
"8 	c #FED83F",
"9 	c #FEDB50",
"0 	c #FEDE5D",
"a 	c #FEDF61",
"b 	c #E8CB54",
"c 	c #000001",
"d 	c #8B761D",
"e 	c #FED326",
"f 	c #FECF14",
"g 	c #F9C805",
"h 	c #806607",
"i 	c #A3850D",
"j 	c #FED11D",
"k 	c #FED945",
"l 	c #FEDD59",
"m 	c #FEE16B",
"n 	c #FEE373",
"o 	c #FEE065",
"p 	c #C9B046",
"q 	c #E6C339",
"r 	c #FED32B",
"s 	c #E6BD19",
"t 	c #735E05",
"u 	c #DAB10B",
"v 	c #FEE066",
"w 	c #FEDC52",
"x 	c #F9D43E",
"y 	c #B29623",
"z 	c #0A0701",
"A 	c #F4C60B",
"B 	c #FED119",
"C 	c #FEDD5A",
"D 	c #DCBE44",
"E 	c #65561A",
"F 	c #796C2D",
"G 	c #A1861B",
"H 	c #353012",
"I 	c #AB9332",
"J 	c #5C4903",
"K 	c #8E7E35",
"L 	c #907610",
"M 	c #FBCA03",
"N 	c #FECF12",
"O 	c #FED223",
"P 	c #FED842",
"Q 	c #FEDB4D",
"R 	c #D7BA41",
"S 	c #010001",
"T 	c #DFBD3D",
"U 	c #F2C51B",
"V 	c #4A3A03",
"W 	c #988225",
"X 	c #FCD336",
"Y 	c #A78503",
"Z 	c #F2CE3F",
"` 	c #E6BA11",
" .	c #EDBF05",
"..	c #FDCC08",
"+.	c #FED018",
"@.	c #DBB828",
"#.	c #65530C",
"$.	c #705902",
"%.	c #816704",
"&.	c #352801",
"*.	c #947603",
"=.	c #423402",
"-.	c #826807",
";.	c #715903",
">.	c #CBA203",
",.	c #F8C701",
"'.	c #FDCD09",
").	c #FED017",
"!.	c #FED220",
"~.	c #FED325",
"{.	c #FED327",
"].	c #F9CB12",
"^.	c #B19009",
"/.	c #0B0601",
"(.	c #907405",
"_.	c #EBBC01",
":.	c #F7C601",
"<.	c #FDCC05",
"[.	c #FECF11",
"}.	c #FECD0A",
"|.	c #FCCB03",
"1.	c #F4C300",
"2.	c #D1A705",
"3.	c #614D03",
"4.	c #1A1301",
"5.	c #E7B800",
"6.	c #F1C000",
"7.	c #F7C600",
"8.	c #FAC902",
"9.	c #FBC902",
"0.	c #F9C901",
"a.	c #F6C500",
"b.	c #EEBE00",
"c.	c #E3B600",
"d.	c #D6AB00",
"e.	c #C69F03",
"f.	c #634F05",
"g.	c #5C4804",
"h.	c #D0A704",
"i.	c #DDB100",
"j.	c #E4B600",
"k.	c #E8BA00",
"l.	c #E9BA00",
"m.	c #E7B900",
"n.	c #E2B500",
"o.	c #DAAF00",
"p.	c #D1A700",
"q.	c #C69E00",
"r.	c #A48305",
"s.	c #0F0A01",
"t.	c #5C4904",
"u.	c #BD9703",
"v.	c #CFA600",
"w.	c #D2A800",
"x.	c #D4A900",
"y.	c #CEA500",
"z.	c #C89F00",
"A.	c #BE9800",
"B.	c #967805",
"C.	c #231B01",
"D.	c #221B02",
"E.	c #806603",
"F.	c #A78603",
"G.	c #BB9604",
"H.	c #BD9701",
"I.	c #B18D04",
"J.	c #967804",
"      . + @ # $ % & *                   ",
"    = - ; > , ' ) ! ~ { ]               ",
"  ^ / ( _ : < [ } | 1 2 3 4             ",
"5 6 7 8 9 0 a b c d e f g h             ",
"i j ; k l m n o p q r s t               ",
"u j ; k l m n v w x y z                 ",
"A B 7 8 9 0 a C D E   F G   H I J   K L ",
"M N O ( P : Q R S     T U V W X Y c Z ` ",
" ...+.e ; > , ' @.#.  $.%.  &.*.=.  -.;.",
">.,.'.).!.~.{.O j ].^./.                ",
"(._.:.<.2 N f [.}.|.1.2.3.              ",
"4.>.5.6.7.8.9.0.a.b.c.d.e.f.            ",
"  g.h.i.j.k.l.m.n.o.p.q.r.s.            ",
"    t.u.v.w.x.w.y.z.A.B.C.              ",
"      D.E.F.G.H.I.J.J c                 "};
