/* XPM */
static char * swap_xpm[] = {
"20 20 40 1",
" 	c #FFFFFF",
".	c #000000",
"+	c #FAFAFA",
"@	c #B4B4B4",
"#	c #D0D0D0",
"$	c #CECECE",
"%	c #333333",
"&	c #383838",
"*	c #4B4B4B",
"=	c #CACACA",
"-	c #393939",
";	c #A3A3A3",
">	c #F9F9F9",
",	c #343434",
"'	c #4A4A4A",
")	c #4E4E4E",
"!	c #D5D5D5",
"~	c #444444",
"{	c #9F9F9F",
"]	c #EFEFEF",
"^	c #808080",
"/	c #E3E3E3",
"(	c #C0C0C0",
"_	c #757575",
":	c #999999",
"<	c #8A8A8A",
"[	c #5E5E5E",
"}	c #EAEAEA",
"|	c #A8A8A8",
"1	c #585858",
"2	c #404040",
"3	c #2E2E2E",
"4	c #161616",
"5	c #262626",
"6	c #858585",
"7	c #686868",
"8	c #5C5C5C",
"9	c #101010",
"0	c #1E1E1E",
"a	c #919191",
"     ..             ",
"    ..              ",
"   ..               ",
"  ................  ",
" .................. ",
" .................. ",
" .................. ",
"  ...               ",
"   ...              ",
"    ..*      ,.     ",
"     .%      *..    ",
"              ...   ",
"               ...  ",
" .................. ",
" .................. ",
" .................. ",
"  ................  ",
"               ..   ",
"              ..    ",
"             ..     "};
