/* XPM */
static char * weather_xpm[] = {
"25 20 67 1",
" 	c #F7F7F7",
".	c #CACACA",
"+	c #D4D4D4",
"@	c #B7B7B7",
"#	c #C5C5C5",
"$	c #CCCCCC",
"%	c #C8C8C8",
"&	c #D6D6D6",
"*	c #E9E9E9",
"=	c #5E5E5E",
"-	c #EBEBEB",
";	c #7F7F7F",
">	c #F2F2F2",
",	c #939393",
"'	c #F4F4F4",
")	c #BFBFBF",
"!	c #858585",
"~	c #888888",
"{	c #C4C4C4",
"]	c #989898",
"^	c #F1F1F1",
"/	c #848484",
"(	c #010101",
"_	c #090909",
":	c #D9D9D9",
"<	c #EEEEEE",
"[	c #DADADA",
"}	c #CFCFCF",
"|	c #C6C6C6",
"1	c #373737",
"2	c #747474",
"3	c #A4A4A4",
"4	c #A0A0A0",
"5	c #616161",
"6	c #F3F3F3",
"7	c #E4E4E4",
"8	c #AEAEAE",
"9	c #E0E0E0",
"0	c #636363",
"a	c #B6B6B6",
"b	c #E8E8E8",
"c	c #DDDDDD",
"d	c #191919",
"e	c #828282",
"f	c #E5E5E5",
"g	c #BEBEBE",
"h	c #686868",
"i	c #D8D8D8",
"j	c #737373",
"k	c #F0F0F0",
"l	c #707070",
"m	c #C9C9C9",
"n	c #DBDBDB",
"o	c #6B6B6B",
"p	c #A9A9A9",
"q	c #E1E1E1",
"r	c #787878",
"s	c #ADADAD",
"t	c #8A8A8A",
"u	c #D3D3D3",
"v	c #A5A5A5",
"w	c #D1D1D1",
"x	c #4E4E4E",
"y	c #4D4D4D",
"z	c #505050",
"A	c #818181",
"B	c #C3C3C3",
"                         ",
"        .+               ",
"        @#               ",
"   $%   @#   #&          ",
"   *=%  *-  #;>          ",
"    *,')!~{ ]^           ",
"      /(((_:<$#[         ",
"     }(((($|1(((2*       ",
" }33+3(((4}((((((56      ",
" 7$$-8(((90(((((((a9b    ",
"     c((db(((((((((((/*  ",
"     '{efg((((((((((((h6 ",
"    ij kl((((((((((((((m ",
"   no* p(((((((((((((((3 ",
"   q*  r(((((((((((((((s ",
"       t(((((((((((((((n ",
"       u((((((((((((((v  ",
"        wexyyyyyyyyzAB   ",
"                         ",
"                         "};
